<svg xmlns="http://www.w3.org/2000/svg" viewBox="0 0 500 500"><g id="freepik--background-complete--inject-3"><rect x="416.78" y="398.49" width="33.12" height="0.25" style="fill:#ebebeb"></rect><rect x="322.53" y="401.21" width="8.69" height="0.25" style="fill:#ebebeb"></rect><rect x="396.59" y="389.21" width="19.19" height="0.25" style="fill:#ebebeb"></rect><rect x="52.46" y="390.89" width="43.19" height="0.25" style="fill:#ebebeb"></rect><rect x="104.56" y="390.89" width="6.33" height="0.25" style="fill:#ebebeb"></rect><rect x="131.47" y="395.11" width="93.68" height="0.25" style="fill:#ebebeb"></rect><path d="M237,337.8H43.92a5.71,5.71,0,0,1-5.71-5.71V60.66A5.71,5.71,0,0,1,43.92,55H237a5.71,5.71,0,0,1,5.71,5.71V332.09A5.71,5.71,0,0,1,237,337.8ZM43.92,55.2a5.47,5.47,0,0,0-5.46,5.46V332.09a5.47,5.47,0,0,0,5.46,5.46H237a5.47,5.47,0,0,0,5.46-5.46V60.66A5.47,5.47,0,0,0,237,55.2Z" style="fill:#ebebeb"></path><path d="M453.31,337.8H260.21a5.72,5.72,0,0,1-5.71-5.71V60.66A5.72,5.72,0,0,1,260.21,55h193.1A5.71,5.71,0,0,1,459,60.66V332.09A5.71,5.71,0,0,1,453.31,337.8ZM260.21,55.2a5.47,5.47,0,0,0-5.46,5.46V332.09a5.47,5.47,0,0,0,5.46,5.46h193.1a5.47,5.47,0,0,0,5.46-5.46V60.66a5.47,5.47,0,0,0-5.46-5.46Z" style="fill:#ebebeb"></path><rect y="382.4" width="500" height="0.25" style="fill:#ebebeb"></rect><rect x="71.57" y="95.35" width="120.8" height="286.73" style="fill:#ebebeb"></rect><rect x="76.7" y="100.54" width="110.53" height="281.54" style="fill:#f5f5f5"></rect><rect x="85.07" y="137.68" width="44.31" height="103.11" style="fill:#fafafa"></rect><rect x="135.15" y="137.68" width="44.31" height="103.11" style="fill:#fafafa"></rect><rect x="85.07" y="271.98" width="94.39" height="103.11" style="fill:#fafafa"></rect><path d="M102.35,108h59.83a17.28,17.28,0,0,1,17.28,17.28v7.05a0,0,0,0,1,0,0H85.07a0,0,0,0,1,0,0V125.3A17.28,17.28,0,0,1,102.35,108Z" style="fill:#fafafa"></path><rect x="85.07" y="245.43" width="8.06" height="21" style="fill:#e6e6e6"></rect><rect x="93.12" y="245.43" width="1.58" height="21" transform="translate(187.83 511.87) rotate(180)" style="fill:#e0e0e0"></rect><path d="M90.46,253.68a3.4,3.4,0,1,1-3.4-3.39A3.4,3.4,0,0,1,90.46,253.68Z" style="fill:#e0e0e0"></path><rect x="88.06" y="259.56" width="1.75" height="4.25" style="fill:#e0e0e0"></rect><circle cx="84.07" cy="253.68" r="4.75" style="fill:#ebebeb"></circle><path d="M378.29,300.18s13.8-13,13.57-21.55-8.62,11.48-8.82,7.27,9.54-16.3,9.95-24.56-9.91,14.82-10.46,11,9.45-21.05,9.37-27.05-8.74,15.21-10,11.46,7.21-17.77,5-28.26-6.77,17-7.47,13.54,5.16-21.43,1-28.59-3,19.39-4.39,16.3-2.27-18.31-7.54-23.49,1.39,15.33-.23,16.37-9.14-14.24-11.17-11.34,10.69,19.31,10.81,23.23-10.26-6.55-11.19-2.3,14.45,10.94,15.24,15-12.8-3.21-12.74,1,12.93,6.44,13.7,11.2-12.61-3.45-11.87,2.14,9.73,4.49,10.76,10-9.3-.77-8.91,4.46,10.71,5.81,11.79,9.8-9.85-1.86-9.55,2.38S376.14,292.91,378.29,300.18Z" style="fill:#e0e0e0"></path><path d="M377.15,318.68a163.48,163.48,0,0,0,2.9-29.2c.52-21.29-2.16-42.76-9.25-62.89-.52-1.47-2.91-.94-2.39.54,7,20,9.7,41.17,9.19,62.27A160,160,0,0,1,374.81,318c-.31,1.53,2,2.27,2.34.73Z" style="fill:#f0f0f0"></path><path d="M382.33,304.58s-9.59-18.36-6.53-30.8,5.3,16.52,6.73,9.59S378,263,383.55,253s.41,18.76,4.08,12.44S387,243,392.12,236.86s1.63,13.26,4.07,10.2,1.84-17.33,5.72-20.6.4,13.67,2.44,10.4,6.73-18.15,13.26-20-4.28,9.17,0,8.15,14.07-3.26,14.89,1.23-20.6,9.38-23.05,14.89,9.79-4.29,12-.21-18.77,9.79-20.4,15.91,17.34-5.1,16.93,1.23-21.83,7.54-22.85,13.05,17.55-6.12,16.93-.61-19.17,9.79-20.39,15.7,13.66-5.5,14.07-.81S382.33,304.58,382.33,304.58Z" style="fill:#ebebeb"></path><path d="M368.77,304s9.28-16.55,6.51-24.63S370.49,293,369,289s4.23-18.4,2.15-26.4-5,17.1-6.71,13.56,2.73-22.9.86-28.6-3.8,17.13-6.13,13.92,1.57-19.11-3.64-28.48-1.37,18.28-3.08,15.16-1.48-22-7.58-27.58,3,19.39.69,16.86-7.65-16.79-14.23-20.16,5.91,14.22,4.68,15.69-13-10.85-14.05-7.48,16,15.23,17.26,18.94-11.75-3.19-11.37,1.15,17.07,6.12,19,9.76-13.17.77-11.86,4.75,14.26,2.28,16.42,6.59-13.06.48-10.69,5.59,10.63,1.38,13.26,6.33-9.1,2-7.16,6.92,11.95,2.34,14.17,5.83-10,1.16-8.4,5.12S364.55,297.74,368.77,304Z" style="fill:#ebebeb"></path><path d="M373.22,322a164.55,164.55,0,0,0-6-28.73c-5.88-20.47-14.85-40.16-27.64-57.26-.93-1.24-3.06,0-2.11,1.24,12.67,16.94,21.57,36.38,27.39,56.67A161.09,161.09,0,0,1,370.77,322c.15,1.55,2.6,1.56,2.45,0Z" style="fill:#f0f0f0"></path><path d="M381.92,319.67a175.93,175.93,0,0,1,3-25.37c2.94-16.17,7.63-32.69,16.67-46.58,5.15-7.93,11.9-14.72,20.53-18.77,1.43-.67.19-2.78-1.23-2.12-15.44,7.26-24.69,22.71-30.56,38.09-5.45,14.32-8.47,29.57-10.07,44.78-.35,3.31-.66,6.64-.77,10-.05,1.58,2.39,1.57,2.45,0Z" style="fill:#f5f5f5"></path><polygon points="401.9 314.92 351.32 314.92 357.03 369.03 357.03 382.08 396.19 382.08 396.19 369.03 401.9 314.92" style="fill:#ebebeb"></polygon><rect x="377.15" y="148.51" width="36.33" height="28.64" style="fill:#f0f0f0"></rect><rect x="413.48" y="148.51" width="1.96" height="28.64" style="fill:#e0e0e0"></rect><rect x="380.86" y="151.43" width="28.92" height="22.8" style="fill:#fafafa"></rect><rect x="383.24" y="153.31" width="24.16" height="19.05" style="fill:#ebebeb"></rect><rect x="329.67" y="102.03" width="39.99" height="50.71" style="fill:#ebebeb"></rect><rect x="369.66" y="102.03" width="1.91" height="50.71" style="fill:#e0e0e0"></rect><rect x="333.75" y="107.2" width="31.83" height="40.37" style="fill:#f5f5f5"></rect><rect x="336.37" y="110.53" width="26.59" height="33.73" style="fill:#fafafa"></rect><path d="M354.93,122.43s-4.7,6.65-7.12,6.54c-2.21-.1-6-6.54-6-6.54s4.7-6.65,7.12-6.54C351.17,116,354.93,122.43,354.93,122.43Z" style="fill:#ebebeb"></path><path d="M342.63,137.15c-1.39-2.68,5.87-8.31,8.89-8.18,2.77.12,8.54,5.63,7.46,8.18C357.4,140.92,344.51,140.78,342.63,137.15Z" style="fill:#f0f0f0"></path><ellipse cx="402.36" cy="108.23" rx="18.05" ry="25.17" style="fill:#e0e0e0"></ellipse><ellipse cx="400.21" cy="108.23" rx="18.05" ry="25.17" style="fill:#ebebeb"></ellipse><ellipse cx="400.21" cy="108.23" rx="15.38" ry="21.44" style="fill:#e6e6e6"></ellipse><ellipse cx="400.21" cy="108.23" rx="13.74" ry="19.16" style="fill:#fafafa"></ellipse><path d="M395.9,118.64A13.81,13.81,0,0,1,391.66,108s5.67-.66,5.5,8.84c0,0,6.39-6.63,4.5-10.84-2.94-6.56-2.94-6.56-.86-10.66,0,0,5.57,2.25,3,9.83A23.8,23.8,0,0,1,403,111s5.61-5.37,7.41-1.85c0,0-3,5.69-7.41,3.32C403,112.44,398,121.16,395.9,118.64Z" style="fill:#ebebeb"></path></g><g id="freepik--Shadow--inject-3"><ellipse id="freepik--path--inject-3" cx="245.18" cy="412.39" rx="193.89" ry="11.32" style="fill:#f5f5f5"></ellipse></g><g id="freepik--Gears--inject-3"><path d="M298.23,316.33c0-.84-.05-1.67-.12-2.49l4.88-2.71a33.26,33.26,0,0,0-1.81-6.77l-5.58.1a28,28,0,0,0-2.49-4.32l2.87-4.78a33.64,33.64,0,0,0-5-4.95l-4.78,2.87a28,28,0,0,0-4.31-2.5l.09-5.57a33.36,33.36,0,0,0-6.76-1.82l-2.71,4.88c-.83-.07-1.65-.11-2.49-.11s-1.67,0-2.49.11l-2.71-4.88a33.28,33.28,0,0,0-6.77,1.82l.09,5.57a28.44,28.44,0,0,0-4.31,2.5l-4.78-2.87a33.09,33.09,0,0,0-5,4.95l2.86,4.78a28,28,0,0,0-2.49,4.32l-5.57-.1a33.28,33.28,0,0,0-1.82,6.77l4.88,2.71c-.07.82-.11,1.65-.11,2.49s0,1.67.11,2.49l-4.88,2.71a33.19,33.19,0,0,0,1.82,6.76l5.57-.09a27.45,27.45,0,0,0,2.49,4.31l-2.86,4.78a33.64,33.64,0,0,0,5,5l4.78-2.87a29.31,29.31,0,0,0,4.31,2.5l-.09,5.57a32.63,32.63,0,0,0,6.77,1.81l2.71-4.88q1.23.12,2.49.12c.84,0,1.66,0,2.49-.12l2.71,4.88a32.71,32.71,0,0,0,6.76-1.81l-.09-5.57a28.8,28.8,0,0,0,4.31-2.5l4.78,2.87a34.2,34.2,0,0,0,5-5l-2.87-4.78a27.45,27.45,0,0,0,2.49-4.31l5.58.09a33.17,33.17,0,0,0,1.81-6.76l-4.88-2.71C298.18,318,298.23,317.17,298.23,316.33Zm-28.17,19.12a19.13,19.13,0,1,1,19.12-19.12A19.12,19.12,0,0,1,270.06,335.45Z" style="fill:#407BFF"></path><path d="M298.23,316.33c0-.84-.05-1.67-.12-2.49l4.88-2.71a33.26,33.26,0,0,0-1.81-6.77l-5.58.1a28,28,0,0,0-2.49-4.32l2.87-4.78a33.64,33.64,0,0,0-5-4.95l-4.78,2.87a28,28,0,0,0-4.31-2.5l.09-5.57a33.36,33.36,0,0,0-6.76-1.82l-2.71,4.88c-.83-.07-1.65-.11-2.49-.11s-1.67,0-2.49.11l-2.71-4.88a33.28,33.28,0,0,0-6.77,1.82l.09,5.57a28.44,28.44,0,0,0-4.31,2.5l-4.78-2.87a33.09,33.09,0,0,0-5,4.95l2.86,4.78a28,28,0,0,0-2.49,4.32l-5.57-.1a33.28,33.28,0,0,0-1.82,6.77l4.88,2.71c-.07.82-.11,1.65-.11,2.49s0,1.67.11,2.49l-4.88,2.71a33.19,33.19,0,0,0,1.82,6.76l5.57-.09a27.45,27.45,0,0,0,2.49,4.31l-2.86,4.78a33.64,33.64,0,0,0,5,5l4.78-2.87a29.31,29.31,0,0,0,4.31,2.5l-.09,5.57a32.63,32.63,0,0,0,6.77,1.81l2.71-4.88q1.23.12,2.49.12c.84,0,1.66,0,2.49-.12l2.71,4.88a32.71,32.71,0,0,0,6.76-1.81l-.09-5.57a28.8,28.8,0,0,0,4.31-2.5l4.78,2.87a34.2,34.2,0,0,0,5-5l-2.87-4.78a27.45,27.45,0,0,0,2.49-4.31l5.58.09a33.17,33.17,0,0,0,1.81-6.76l-4.88-2.71C298.18,318,298.23,317.17,298.23,316.33Zm-28.17,19.12a19.13,19.13,0,1,1,19.12-19.12A19.12,19.12,0,0,1,270.06,335.45Z" style="fill:#fff;opacity:0.5"></path><path d="M148.41,169.21c0-.61,0-1.21-.09-1.81l3.55-2a24.61,24.61,0,0,0-1.32-4.92l-4.05.07a19.5,19.5,0,0,0-1.82-3.13l2.09-3.48a24.5,24.5,0,0,0-3.6-3.6l-3.48,2.08a20.22,20.22,0,0,0-3.13-1.81l.06-4a23.09,23.09,0,0,0-4.91-1.32l-2,3.54c-.6-.05-1.2-.08-1.81-.08s-1.22,0-1.81.08l-2-3.54a23.18,23.18,0,0,0-4.92,1.32l.07,4a20.32,20.32,0,0,0-3.14,1.81l-3.47-2.08a24.57,24.57,0,0,0-3.61,3.6l2.09,3.48a20.28,20.28,0,0,0-1.82,3.13l-4-.07a24.61,24.61,0,0,0-1.32,4.92l3.55,2c0,.6-.08,1.2-.08,1.81s0,1.21.08,1.81L104,173a24.43,24.43,0,0,0,1.32,4.92l4-.07a20.86,20.86,0,0,0,1.82,3.14l-2.09,3.47a24.57,24.57,0,0,0,3.61,3.6l3.47-2.08a20.32,20.32,0,0,0,3.14,1.81l-.07,4.05a23.18,23.18,0,0,0,4.92,1.32l2-3.54c.59,0,1.2.08,1.81.08s1.21,0,1.81-.08l2,3.54a23.09,23.09,0,0,0,4.91-1.32l-.06-4.05a20.22,20.22,0,0,0,3.13-1.81l3.48,2.08a24.5,24.5,0,0,0,3.6-3.6L144.68,181a20,20,0,0,0,1.82-3.14l4.05.07a24.43,24.43,0,0,0,1.32-4.92l-3.55-2C148.37,170.42,148.41,169.82,148.41,169.21Zm-20.48,8.07a8.07,8.07,0,1,1,8.07-8.07A8.07,8.07,0,0,1,127.93,177.28Z" style="fill:#407BFF"></path><path d="M148.41,169.21c0-.61,0-1.21-.09-1.81l3.55-2a24.61,24.61,0,0,0-1.32-4.92l-4.05.07a19.5,19.5,0,0,0-1.82-3.13l2.09-3.48a24.5,24.5,0,0,0-3.6-3.6l-3.48,2.08a20.22,20.22,0,0,0-3.13-1.81l.06-4a23.09,23.09,0,0,0-4.91-1.32l-2,3.54c-.6-.05-1.2-.08-1.81-.08s-1.22,0-1.81.08l-2-3.54a23.18,23.18,0,0,0-4.92,1.32l.07,4a20.32,20.32,0,0,0-3.14,1.81l-3.47-2.08a24.57,24.57,0,0,0-3.61,3.6l2.09,3.48a20.28,20.28,0,0,0-1.82,3.13l-4-.07a24.61,24.61,0,0,0-1.32,4.92l3.55,2c0,.6-.08,1.2-.08,1.81s0,1.21.08,1.81L104,173a24.43,24.43,0,0,0,1.32,4.92l4-.07a20.86,20.86,0,0,0,1.82,3.14l-2.09,3.47a24.57,24.57,0,0,0,3.61,3.6l3.47-2.08a20.32,20.32,0,0,0,3.14,1.81l-.07,4.05a23.18,23.18,0,0,0,4.92,1.32l2-3.54c.59,0,1.2.08,1.81.08s1.21,0,1.81-.08l2,3.54a23.09,23.09,0,0,0,4.91-1.32l-.06-4.05a20.22,20.22,0,0,0,3.13-1.81l3.48,2.08a24.5,24.5,0,0,0,3.6-3.6L144.68,181a20,20,0,0,0,1.82-3.14l4.05.07a24.43,24.43,0,0,0,1.32-4.92l-3.55-2C148.37,170.42,148.41,169.82,148.41,169.21Zm-20.48,8.07a8.07,8.07,0,1,1,8.07-8.07A8.07,8.07,0,0,1,127.93,177.28Z" style="fill:#fff;opacity:0.6000000000000001"></path></g><g id="freepik--Device--inject-3"><path d="M269.41,107.79h-26L217.26,407.1h26a24.27,24.27,0,0,0,23.7-21.79L289.3,129.58A19.65,19.65,0,0,0,269.41,107.79Z" style="fill:#263238"></path><path d="M237.91,407.1h-107A19.65,19.65,0,0,1,111,385.31l22.38-255.73a24.26,24.26,0,0,1,23.7-21.79h107A19.65,19.65,0,0,1,284,129.58L261.61,385.31A24.26,24.26,0,0,1,237.91,407.1Z" style="fill:#407BFF"></path><path d="M263.66,112.79H235.85A4,4,0,0,0,232,116l-.18.87a9.87,9.87,0,0,1-9.44,7.72H195.92a7.94,7.94,0,0,1-8.09-7.72l0-.87a3.24,3.24,0,0,0-3.31-3.16H156.67a18.69,18.69,0,0,0-18.26,16.79L116,385.31a15.14,15.14,0,0,0,15.33,16.79h107a18.7,18.7,0,0,0,18.26-16.79L279,129.58A15.14,15.14,0,0,0,263.66,112.79Z" style="fill:#407BFF"></path><path d="M263.66,112.79H235.85A4,4,0,0,0,232,116l-.18.87a9.87,9.87,0,0,1-9.44,7.72H195.92a7.94,7.94,0,0,1-8.09-7.72l0-.87a3.24,3.24,0,0,0-3.31-3.16H156.67a18.69,18.69,0,0,0-18.26,16.79L116,385.31a15.14,15.14,0,0,0,15.33,16.79h107a18.7,18.7,0,0,0,18.26-16.79L279,129.58A15.14,15.14,0,0,0,263.66,112.79Z" style="fill:#fff;opacity:0.7000000000000001"></path><g style="opacity:0.2"><path d="M203.45,115.62a2.37,2.37,0,0,1-2.32,2.13,1.91,1.91,0,0,1-1.93-2.13,2.36,2.36,0,0,1,2.31-2.12A1.92,1.92,0,0,1,203.45,115.62Z"></path><path d="M218.7,113.5h-7.29a2.36,2.36,0,0,0-2.31,2.12,1.92,1.92,0,0,0,1.94,2.13h7.29a2.37,2.37,0,0,0,2.31-2.13A1.92,1.92,0,0,0,218.7,113.5Z"></path></g><polygon points="150.5 124.5 152.75 124.5 152.94 122.25 150.69 122.25 150.5 124.5" style="fill:#407BFF"></polygon><polygon points="155.19 122.25 155 124.5 157.25 124.5 157.44 122.25 157.64 120 155.39 120 155.19 122.25" style="fill:#407BFF"></polygon><polygon points="160.09 117.75 159.89 120 159.69 122.25 159.5 124.5 161.75 124.5 161.94 122.25 162.14 120 162.34 117.75 160.09 117.75" style="fill:#407BFF"></polygon><path d="M256.83,117.9l-.14,1.65h-1.1l-.29,3.3h1.1l-.15,1.65h9.9l.58-6.6Zm4,4.95h-3.3l.29-3.3h3.3Z" style="fill:#407BFF"></path><g style="opacity:0.4"><path d="M196,124.54,122.14,399.17a15.52,15.52,0,0,0,9.22,2.93h5.77l74.65-277.56Z" style="fill:#fff"></path><path d="M263.66,112.79H235.85A4,4,0,0,0,232,116l-.18.87a9.89,9.89,0,0,1-9.1,7.71L148.05,402.1H205l74-275.17A15.07,15.07,0,0,0,263.66,112.79Z" style="fill:#fff"></path></g></g><g id="freepik--Interface--inject-3"><path d="M176.89,191H144.33a3.59,3.59,0,0,1-3.64-4l3.11-35.52a4.43,4.43,0,0,1,4.33-4H180.7a3.58,3.58,0,0,1,3.63,4L181.23,187A4.45,4.45,0,0,1,176.89,191Z" style="fill:#fff"></path><path d="M259.87,222.18H188.74a3.59,3.59,0,0,1-3.64-4l5.84-66.74a4.43,4.43,0,0,1,4.33-4H266.4a3.6,3.6,0,0,1,3.64,4l-5.84,66.74A4.43,4.43,0,0,1,259.87,222.18Z" style="fill:#fff"></path><path d="M254.52,283.27H136.25a3.6,3.6,0,0,1-3.64-4l4.11-47a4.45,4.45,0,0,1,4.34-4H259.33a3.6,3.6,0,0,1,3.64,4l-4.11,47A4.45,4.45,0,0,1,254.52,283.27Z" style="fill:#fff"></path><path d="M246.14,379.06H127.87a3.6,3.6,0,0,1-3.64-4l7.15-81.69a4.43,4.43,0,0,1,4.34-4H254a3.58,3.58,0,0,1,3.63,4l-7.14,81.69A4.45,4.45,0,0,1,246.14,379.06Z" style="fill:#fff"></path><path d="M164.14,181.7H131.58a3.59,3.59,0,0,1-3.64-4l3.11-35.53a4.44,4.44,0,0,1,4.34-4H168a3.6,3.6,0,0,1,3.64,4l-3.11,35.53A4.44,4.44,0,0,1,164.14,181.7Z" style="fill:#407BFF"></path><path d="M164.14,181.7H131.58a3.59,3.59,0,0,1-3.64-4l3.11-35.53a4.44,4.44,0,0,1,4.34-4H168a3.6,3.6,0,0,1,3.64,4l-3.11,35.53A4.44,4.44,0,0,1,164.14,181.7Z" style="fill:#fff;opacity:0.4"></path><path d="M168.59,142.19a.9.9,0,0,0-.9-1H135.12a1.1,1.1,0,0,0-1.07,1l-3.11,35.53a.89.89,0,0,0,.9,1h32.57a1.1,1.1,0,0,0,1.07-1Z" style="fill:#fff;opacity:0.8"></path><path d="M156.16,158.44c-.36,4.07-2.84,7.37-6.91,7.37s-6-3.3-5.61-7.37,2.83-7.37,6.9-7.37S156.51,154.37,156.16,158.44Z" style="fill:#407BFF"></path><path d="M163.54,172.71a8.35,8.35,0,0,0-8.21-6.1H143a10.37,10.37,0,0,0-9.27,6.1l-2.59,5.7a.89.89,0,0,0,.67.29h32.57a1.08,1.08,0,0,0,.72-.29Z" style="fill:#407BFF"></path><path d="M228.58,369.06H110.31a3.6,3.6,0,0,1-3.64-4l7.15-81.69a4.43,4.43,0,0,1,4.33-4H236.42a3.6,3.6,0,0,1,3.64,4l-7.15,81.69A4.44,4.44,0,0,1,228.58,369.06Z" style="fill:#407BFF"></path><path d="M228.58,369.06H110.31a3.6,3.6,0,0,1-3.64-4l7.15-81.69a4.43,4.43,0,0,1,4.33-4H236.42a3.6,3.6,0,0,1,3.64,4l-7.15,81.69A4.44,4.44,0,0,1,228.58,369.06Z" style="fill:#fff;opacity:0.4"></path><path d="M236.16,282.39H117.89a1.08,1.08,0,0,0-1.07,1l-7.15,81.69a.89.89,0,0,0,.9,1H228.84a1.11,1.11,0,0,0,1.07-1l7.15-81.69A.89.89,0,0,0,236.16,282.39Z" style="fill:#263238"></path><ellipse cx="173.36" cy="324.22" rx="16.17" ry="14.82" transform="translate(-176.07 209.89) rotate(-43.75)" style="fill:#407BFF"></ellipse><polygon points="181.46 324.22 168.57 332.12 169.96 316.33 181.46 324.22" style="fill:#fff;opacity:0.9"></polygon><polygon points="215.64 353.97 116.51 353.97 116.58 353.14 215.71 353.14 215.64 353.97" style="fill:#fff;opacity:0.8"></polygon><path d="M154.56,353.55a1.24,1.24,0,0,1-1.22,1.13H115.57a1,1,0,0,1-1-1.13h0a1.24,1.24,0,0,1,1.22-1.12h37.77a1,1,0,0,1,1,1.12Z" style="fill:#407BFF"></path><g style="opacity:0.8"><polygon points="224.91 351.1 226.18 351.1 226.09 352.2 227.16 352.2 227.32 350.43 224.97 350.43 224.91 351.1" style="fill:#fff"></polygon><polygon points="218.24 352.2 218.34 351.1 219.61 351.1 219.67 350.43 217.32 350.43 217.16 352.2 218.24 352.2" style="fill:#fff"></polygon><polygon points="219.19 356.01 217.91 356.01 218.01 354.91 216.93 354.91 216.77 356.68 219.13 356.68 219.19 356.01" style="fill:#fff"></polygon><polygon points="225.85 354.91 225.75 356.01 224.48 356.01 224.42 356.68 226.77 356.68 226.93 354.91 225.85 354.91" style="fill:#fff"></polygon></g><g style="opacity:0.8"><polygon points="167.66 362.44 171.5 360.09 168.07 357.73 167.66 362.44" style="fill:#fff;opacity:0.9"></polygon><polygon points="171.69 357.98 171.5 360.09 171.32 362.19 172.3 362.19 172.67 357.98 171.69 357.98" style="fill:#fff;opacity:0.9"></polygon></g><g style="opacity:0.8"><polygon points="176.07 362.19 177.35 362.19 177.72 357.98 176.44 357.98 176.07 362.19" style="fill:#fff;opacity:0.9"></polygon><polygon points="178.7 357.98 178.33 362.19 179.6 362.19 179.97 357.98 178.7 357.98" style="fill:#fff;opacity:0.9"></polygon></g><polygon points="164.3 360.09 160.46 362.44 160.87 357.73 164.3 360.09" style="fill:#fff;opacity:0.8"></polygon><path d="M236.3,272.26H118a3.6,3.6,0,0,1-3.64-4l4.11-47a4.45,4.45,0,0,1,4.34-4H241.11a3.59,3.59,0,0,1,3.64,4l-4.11,47A4.45,4.45,0,0,1,236.3,272.26Z" style="fill:#407BFF"></path><path d="M236.3,272.26H118a3.6,3.6,0,0,1-3.64-4l4.11-47a4.45,4.45,0,0,1,4.34-4H241.11a3.59,3.59,0,0,1,3.64,4l-4.11,47A4.45,4.45,0,0,1,236.3,272.26Z" style="fill:#fff;opacity:0.4"></path><path d="M240.89,219.8H122.62a1.65,1.65,0,0,0-1.62,1.48l-4.11,47a1.35,1.35,0,0,0,1.36,1.49H236.52a1.67,1.67,0,0,0,1.62-1.49l4.11-47A1.34,1.34,0,0,0,240.89,219.8Z" style="fill:#fff;opacity:0.30000000000000004"></path><polygon points="146.78 244.78 203.78 244.78 200.98 231.04 197.23 219.8 139.72 219.8 146.78 244.78" style="fill:#fff;opacity:0.4"></polygon><path d="M146.78,244.78l-27.92,1-2,22.49a1.35,1.35,0,0,0,1.36,1.49h35.64Z" style="fill:#fff;opacity:0.4"></path><polygon points="238.78 260.88 239.25 255.53 206.61 242.57 203.45 233.41 213.46 219.8 208.69 219.8 202.16 228.68 199.9 219.8 195.63 219.8 198.96 233.03 202.16 242.28 148.16 242.28 142.25 219.8 138.01 219.8 143.92 242.28 119.17 242.28 118.73 247.28 145.24 247.28 151.15 269.76 155.38 269.76 149.47 247.28 179.14 247.28 194.69 269.76 199.76 269.76 184.21 247.28 204.51 247.28 238.78 260.88" style="fill:#fff"></polygon><ellipse cx="181.98" cy="238.72" rx="6.25" ry="1.37" transform="translate(-1.06 0.81) rotate(-0.25)" style="opacity:0.2"></ellipse><path d="M183.37,222.8a7,7,0,0,0-6.8,6.25c-.3,3.45,5.36,10.25,5.36,10.25s6.84-6.8,7.14-10.25A5.64,5.64,0,0,0,183.37,222.8Zm-.8,9.1a2.57,2.57,0,0,1-2.6-2.85,3.18,3.18,0,0,1,3.1-2.85,2.57,2.57,0,0,1,2.6,2.85A3.16,3.16,0,0,1,182.57,231.9Z" style="fill:#407BFF"></path></g><g id="freepik--Character--inject-3"><polygon points="335.46 380.99 333.89 398.95 325.75 398.95 324.91 380.99 335.46 380.99" style="fill:#b97964"></polygon><path d="M322.09,398.51a3.62,3.62,0,0,1-2.5-.7.77.77,0,0,1,0-.88,1,1,0,0,1,.64-.46c1.43-.37,4.38,1.39,4.51,1.46a.23.23,0,0,1,.1.22.23.23,0,0,1-.17.16A15.26,15.26,0,0,1,322.09,398.51Zm-1.33-1.69a1.2,1.2,0,0,0-.38.05.56.56,0,0,0-.41.27c-.15.25-.1.37,0,.44.38.57,2.54.62,4.13.45A9.25,9.25,0,0,0,320.76,396.82Z" style="fill:#407BFF"></path><path d="M324.68,398.31h-.09c-1-.47-3-2.36-2.83-3.32,0-.23.2-.51.76-.55a1.48,1.48,0,0,1,1.12.36c1.07.91,1.26,3.22,1.27,3.33a.19.19,0,0,1-.09.18A.23.23,0,0,1,324.68,398.31Zm-2-3.5h-.12c-.36,0-.39.17-.4.22-.06.58,1.26,2.05,2.3,2.7a4.7,4.7,0,0,0-1.09-2.64,1,1,0,0,0-.69-.27Z" style="fill:#407BFF"></path><path d="M325.6,397.13l9.32.16a.74.74,0,0,1,.72.6l1.56,7.61a1.26,1.26,0,0,1-1,1.48,1.23,1.23,0,0,1-.27,0c-3.35-.11-6.34-.35-10.52-.41-4.94-.08-3.69.53-9.5.51-3.5,0-4.07-4-2.58-4.17,6.8-.74,7.54-2.77,10.2-5.16A3,3,0,0,1,325.6,397.13Z" style="fill:#263238"></path><path d="M311,224.38l13.33,163.28h11.1s6.47-45.26,2-73.72a34.38,34.38,0,0,1-.18-9.12c1.38-12.26,4.76-43.7,4.31-54.33,0,0,5.65-12.78,1.16-30.55H311Z" style="fill:#263238"></path><polygon points="337.04 384.6 336.58 387.66 337.59 390.16 323.52 390.16 323.89 387.66 322.69 384.6 337.04 384.6" style="fill:#263238"></polygon><polygon points="337.04 384.6 336.58 387.66 337.59 390.16 323.52 390.16 323.89 387.66 322.69 384.6 337.04 384.6" style="fill:#fff;opacity:0.30000000000000004"></polygon><path d="M336.75,239.7l5.84,7.83a24.75,24.75,0,0,1-1,3c.28,6.65-.69,18.68-1.72,29.08-11.33-26.56-8.1-36.87-8.1-36.87Z" style="opacity:0.5"></path><path d="M278.49,160.9l-3.94-6.66L277,150a2.18,2.18,0,0,0,.15-1.83l-.19-.48a2.12,2.12,0,0,0-1.93-1.36l-3.86-.11a2.12,2.12,0,0,0-1.92,1.11l-.79,1.43a2.5,2.5,0,0,0-.07,2.26l1.66,3.59,3.08,8.26Z" style="fill:#b97964"></path><path d="M309.84,159.73,287.35,176.1l-10.57-19.77-6,2.6s9.25,30,14.63,28.75S306,179,310.91,173.81c2.49-2.59,4.38-7.36,1.92-13.26A2,2,0,0,0,309.84,159.73Z" style="fill:#407BFF"></path><path d="M318.25,120.76s-7.95,2.08-4.27,11.66c0,0,3.95-1,4.6-3.6s1.25-6.15,1.25-6.15Z" style="fill:#263238"></path><path d="M318.25,120.76s-7.95,2.08-4.27,11.66c0,0,3.95-1,4.6-3.6s1.25-6.15,1.25-6.15Z" style="opacity:0.30000000000000004"></path><polygon points="337.01 158.78 322.5 158.31 316.5 159.17 315.69 170.11 327.38 174 339.85 171.51 340.5 160.97 339.61 158.87 337.01 158.78" style="fill:#b97964"></polygon><polygon points="375.44 380.53 380.81 398.95 387.8 398.95 386.39 379.98 375.44 380.53" style="fill:#b97964"></polygon><path d="M376,398.51c-1.06,0-2.14-.23-2.46-.7a.77.77,0,0,1,.08-.88,1.12,1.12,0,0,1,.66-.46c1.46-.37,4.31,1.39,4.44,1.46a.2.2,0,0,1,.08.22.23.23,0,0,1-.17.16A15.45,15.45,0,0,1,376,398.51Zm-1.24-1.69a1.31,1.31,0,0,0-.39.05.59.59,0,0,0-.42.27c-.16.25-.12.37-.07.44.36.57,2.51.62,4.11.45A8.77,8.77,0,0,0,374.74,396.82Z" style="fill:#407BFF"></path><path d="M378.58,398.31h-.09c-1-.47-2.91-2.36-2.66-3.32,0-.23.23-.51.79-.55a1.41,1.41,0,0,1,1.1.36c1,.91,1.1,3.22,1.1,3.33a.22.22,0,0,1-.1.18A.23.23,0,0,1,378.58,398.31Zm-1.85-3.5h-.11c-.37,0-.4.17-.42.22-.09.58,1.15,2.05,2.16,2.7a4.48,4.48,0,0,0-.95-2.64,1,1,0,0,0-.68-.27Z" style="fill:#407BFF"></path><path d="M379.56,397.13l9.31.16a.71.71,0,0,1,.7.6l1.15,7.61a1.33,1.33,0,0,1-1,1.48,1.14,1.14,0,0,1-.26,0c-3.36-.11-6.33-.35-10.51-.41-4.93-.08-3.72.53-9.52.51-3.5,0-3.86-4-2.37-4.17,6.84-.74,7.69-2.77,10.47-5.16A3.18,3.18,0,0,1,379.56,397.13Z" style="fill:#263238"></path><path d="M323.6,219.94l52.85,167.72H387.6s-5.33-53.92-15-75a26.27,26.27,0,0,1-2.24-8.24c-1-10.35-3.68-34.83-6.69-48.31a30,30,0,0,1-.69-5.17c-.26-5.78-1.7-20.2-9.22-31Z" style="fill:#263238"></path><polygon points="389.57 384.6 388.95 387.66 389.83 390.16 375.76 390.16 375.15 387.66 374.11 384.6 389.57 384.6" style="fill:#263238"></polygon><polygon points="389.57 384.6 388.95 387.66 389.83 390.16 375.76 390.16 375.15 387.66 374.11 384.6 389.57 384.6" style="fill:#fff;opacity:0.30000000000000004"></polygon><path d="M338.83,160.59s-4.65,7.1-12.32,6.75c-7.26-.33-8.51-7.58-8.51-7.58l-.92,11.08-.91,26.83,1.16,11.38-.08,12.54a105.08,105.08,0,0,0,20.5-.33s1.33-46,1.08-45.75,2.17-8,2.17-8v-3.34Z" style="fill:#407BFF"></path><path d="M338.83,160.59s-4.65,7.1-12.32,6.75c-7.26-.33-8.51-7.58-8.51-7.58l-.92,11.08-.91,26.83,1.16,11.38-.08,12.54a105.08,105.08,0,0,0,20.5-.33s1.33-46,1.08-45.75,2.17-8,2.17-8v-3.34Z" style="fill:#fff;opacity:0.6000000000000001"></path><path d="M331.44,157.93s24-1.48,25,5.76-6,22.07-4.84,32.23,6.84,25.41,6.84,25.41-18.17,12.09-24.5,8.09-4.65-49.83-4.65-49.83,13.48-19.17,5.9-20.17-16.25-1.8-15.59,4.27a138.4,138.4,0,0,0,3.11,15.4s-.56,50.84-5.94,50.17-8.1-6.5-8.1-6.5a51,51,0,0,0,0-18.69c-1.9-10.48-5.38-18.72-3.49-27s3.49-18.86,7.49-19C316.08,157.83,331.44,157.93,331.44,157.93Z" style="fill:#407BFF"></path><path d="M331.44,157.93s24-1.48,25,5.76-6,22.07-4.84,32.23,6.84,25.41,6.84,25.41-18.17,12.09-24.5,8.09-4.65-49.83-4.65-49.83,13.48-19.17,5.9-20.17-16.25-1.8-15.59,4.27a138.4,138.4,0,0,0,3.11,15.4s-.56,50.84-5.94,50.17-8.1-6.5-8.1-6.5a51,51,0,0,0,0-18.69c-1.9-10.48-5.38-18.72-3.49-27s3.49-18.86,7.49-19C316.08,157.83,331.44,157.93,331.44,157.93Z" style="opacity:0.2"></path><path d="M321.3,157.89c5,0,10.14,0,10.14,0s3.07-.19,7.05-.1c1.58,1.09,3.68,3.6,2,8.93L337,168.09l.63,3.42s-4,6.34-8.41,8.74c0-.42,0-.66,0-.66s13.48-19.17,5.9-20.17-16.25-1.8-15.59,4.27a138.4,138.4,0,0,0,3.11,15.4v.28c-2.14-1.9-4-5.28-5.28-9.28l1.42-3.94-3.14-1.73A8.41,8.41,0,0,1,321.3,157.89Z" style="fill:#407BFF"></path><path d="M321.3,157.89c5,0,10.14,0,10.14,0s3.07-.19,7.05-.1c1.58,1.09,3.68,3.6,2,8.93L337,168.09l.63,3.42s-4,6.34-8.41,8.74c0-.42,0-.66,0-.66s13.48-19.17,5.9-20.17-16.25-1.8-15.59,4.27a138.4,138.4,0,0,0,3.11,15.4v.28c-2.14-1.9-4-5.28-5.28-9.28l1.42-3.94-3.14-1.73A8.41,8.41,0,0,1,321.3,157.89Z" style="fill:#fff;opacity:0.2"></path><path d="M322.68,166c-3.2-3.37-1.23-5.8-1.23-5.8,5.7-1.94,5.18-6.22,3.87-10.19l9.19-9.38c-.55,5-.75,16.48,2.52,20.48V162a78,78,0,0,0-8.64,4Z" style="fill:#b97964"></path><path d="M325.32,150l7.3-7.45,1.69.61c-.06.9-.09,1.88-.11,2.91-.92,1.89-3.14,4.55-8.33,5.89C325.72,151.29,325.53,150.63,325.32,150Z" style="opacity:0.1"></path><path d="M339.19,132.33c-2.23,8.5-3,12.14-8.19,15.7-7.84,5.35-17.78.77-18.15-8.22-.33-8.09,3.35-20.62,12.44-22.38a12,12,0,0,1,13.9,14.9Z" style="fill:#b97964"></path><path d="M319,134.52a19.23,19.23,0,0,1-3.37,4,3,3,0,0,0,2.39,1Z" style="fill:#a24e3f"></path><path d="M328.06,131.39a.35.35,0,0,0,.29-.52h0a4.09,4.09,0,0,0-3.15-2,.36.36,0,0,0-.36.34.35.35,0,0,0,.33.36,3.39,3.39,0,0,1,2.59,1.71A.35.35,0,0,0,328.06,131.39Z" style="fill:#263238"></path><path d="M314,128.82a.34.34,0,0,0,.17,0,3.39,3.39,0,0,1,3.08-.2.35.35,0,0,0,.47-.14h0a.36.36,0,0,0-.16-.47,4.11,4.11,0,0,0-3.75.21.35.35,0,0,0-.15.47.35.35,0,0,0,.33.19Z" style="fill:#263238"></path><path d="M321.58,141.8a7.17,7.17,0,0,1-1.22-.1.22.22,0,0,1-.17-.25h0a.21.21,0,0,1,.24-.18,5.83,5.83,0,0,0,5-1.4.22.22,0,0,1,.32.29A6,6,0,0,1,321.58,141.8Z" style="fill:#263238"></path><path d="M336.33,139a10.76,10.76,0,0,1-2.58-8.63s-3.42-3.5-3.25-7.25c0,0-1,3,0,5.12,0,0-8.87-.65-8.66-5.12,0,0-.58,2.25.75,3.42,0,0-7.88.33-6.82-3.75s7.25-6.09,7.25-6.09,5.88-5,14,3.84c0,0,9.58,6,2.79,16Z" style="fill:#263238"></path><path d="M339.88,139.53a6.37,6.37,0,0,1-3.77,3.13c-2.15.65-3.27-1.26-2.71-3.32.5-1.85,2.23-4.42,4.42-4.17a2.88,2.88,0,0,1,2.06,4.36Z" style="fill:#b97964"></path><path d="M325.38,133.31c-.07.73-.52,1.28-1,1.24s-.8-.68-.72-1.42.53-1.29,1-1.24S325.46,132.57,325.38,133.31Z" style="fill:#2e353a"></path><path d="M317.08,132.44c-.07.73-.52,1.28-1,1.24s-.81-.68-.73-1.42.53-1.29,1-1.24S317.17,131.7,317.08,132.44Z" style="fill:#2e353a"></path><path d="M316.56,131.08l-1.71-.69S315.61,131.86,316.56,131.08Z" style="fill:#2e353a"></path><path d="M324.86,132l-1.71-.69S323.92,132.73,324.86,132Z" style="fill:#2e353a"></path><path d="M335.59,146.64a2.84,2.84,0,0,0,2.09-4.76l-.37.33a2.34,2.34,0,1,1-1.72-.75,2.22,2.22,0,0,1,1,.2l.21-.46a2.9,2.9,0,0,0-1.16-.24,2.84,2.84,0,1,0,0,5.68Z" style="fill:#407BFF"></path><g style="opacity:0.6000000000000001"><path d="M335.59,146.64a2.84,2.84,0,0,0,2.09-4.76l-.37.33a2.34,2.34,0,1,1-1.72-.75,2.22,2.22,0,0,1,1,.2l.21-.46a2.9,2.9,0,0,0-1.16-.24,2.84,2.84,0,1,0,0,5.68Z" style="fill:#fff"></path></g><path d="M305,209.05l-8.12,4.49-8.59-1.06a1.29,1.29,0,0,0-.9.21l-3.23,2.15a1.33,1.33,0,0,0-.42.43l-.93,1.59a1.34,1.34,0,0,0,1,2,54.31,54.31,0,0,0,7.38,1.08,47.36,47.36,0,0,0,6.42-1.37L309,214.49Z" style="fill:#b97964"></path><path d="M353.5,161.69c-4.66-3-10.18,4-14.71,13.74l-8.52,18.37-31.94,18.38,2.19,5.86s30.73-8.62,38.23-17.87S359.88,165.84,353.5,161.69Z" style="fill:#407BFF"></path><path d="M220.29,215.58H287a5.43,5.43,0,0,0,5.29-4.87l4.86-55.53a4.4,4.4,0,0,0-4.44-4.87H226a5.41,5.41,0,0,0-5.29,4.87l-4.86,55.53A4.39,4.39,0,0,0,220.29,215.58Z" style="fill:#407BFF"></path><g style="opacity:0.4"><path d="M220.29,215.58H287a5.43,5.43,0,0,0,5.29-4.87l4.86-55.53a4.4,4.4,0,0,0-4.44-4.87H226a5.41,5.41,0,0,0-5.29,4.87l-4.86,55.53A4.39,4.39,0,0,0,220.29,215.58Z" style="fill:#fff"></path></g><path d="M225.62,153.24a2,2,0,0,0-2,1.82l-4.88,55.77a1.65,1.65,0,0,0,1.66,1.82h67a2,2,0,0,0,2-1.82l4.88-55.77a1.64,1.64,0,0,0-1.66-1.82Z" style="fill:#407BFF"></path><path d="M225.62,153.24a2,2,0,0,0-2,1.82l-4.88,55.77a1.65,1.65,0,0,0,1.66,1.82h67a2,2,0,0,0,2-1.82l4.88-55.77a1.64,1.64,0,0,0-1.66-1.82Z" style="fill:#fff;opacity:0.8"></path><path d="M239.8,181.12l-20.92,28.41-.12,1.3a1.65,1.65,0,0,0,1.66,1.82H257.5Z" style="fill:#407BFF"></path><path d="M289.88,205,273.76,172l-27,40.7h40.6a2,2,0,0,0,2-1.82Z" style="fill:#407BFF"></path><path d="M289.88,205,273.76,172l-27,40.7h40.6a2,2,0,0,0,2-1.82Z" style="fill:#fff;opacity:0.2"></path><path d="M262.65,167.19a5.3,5.3,0,0,1-5.18,4.76,4.3,4.3,0,0,1-4.35-4.76,5.3,5.3,0,0,1,5.18-4.76A4.3,4.3,0,0,1,262.65,167.19Z" style="fill:#407BFF"></path></g></svg>